<?xml version="1.0" standalone="no"?>
<!DOCTYPE svg PUBLIC "-//W3C//DTD SVG 20010904//EN"
 "http://www.w3.org/TR/2001/REC-SVG-20010904/DTD/svg10.dtd">
<svg version="1.0" xmlns="http://www.w3.org/2000/svg"
 width="700.000000pt" height="700.000000pt" viewBox="0 0 700.000000 700.000000"
 preserveAspectRatio="xMidYMid meet">
<metadata>
Created by potrace 1.14, written by Peter Selinger 2001-2017
</metadata>
<g transform="translate(0.000000,700.000000) scale(0.100000,-0.100000)"
fill="#000000" stroke="none">
<path d="M3397 6994 c-1 -1 -54 -4 -117 -8 -168 -9 -188 -11 -425 -51 -16 -3
-41 -8 -55 -11 -14 -3 -36 -8 -50 -10 -22 -4 -55 -11 -85 -20 -5 -2 -20 -5
-32 -8 -143 -32 -354 -105 -553 -193 -252 -111 -526 -278 -750 -457 -244 -195
-486 -451 -658 -694 -45 -64 -86 -121 -90 -127 -8 -11 -81 -132 -119 -200 -27
-47 -131 -257 -163 -330 -75 -171 -145 -388 -190 -592 -44 -193 -59 -296 -79
-518 -8 -99 -7 -486 2 -550 4 -22 9 -69 12 -105 3 -36 8 -72 10 -80 2 -8 6
-32 9 -52 3 -21 9 -55 12 -75 14 -92 60 -280 100 -411 265 -856 846 -1574
1626 -2011 204 -114 376 -190 603 -265 174 -58 442 -122 595 -141 25 -3 65 -8
90 -12 25 -3 61 -7 80 -10 74 -8 529 -10 605 -3 156 17 190 21 215 25 14 2 41
6 60 9 19 3 60 10 90 16 30 6 66 14 80 16 14 3 50 11 80 19 30 8 66 16 80 19
14 2 45 11 70 19 25 8 72 22 105 32 162 47 438 168 630 275 388 216 696 477
1013 854 170 203 370 536 491 818 75 174 172 473 195 604 3 16 8 40 11 54 17
89 25 130 30 165 3 22 7 54 10 70 28 183 38 523 21 735 -11 139 -43 363 -67
470 -6 25 -12 53 -14 62 -13 64 -97 343 -115 383 -5 11 -25 63 -46 115 -51
132 -115 263 -198 408 -39 68 -76 134 -83 146 -11 20 -141 208 -160 231 -4 6
-35 44 -68 85 -90 113 -117 143 -270 295 -119 120 -294 273 -372 325 -11 8
-50 35 -85 60 -424 303 -977 521 -1488 589 -134 18 -163 21 -260 27 -85 6
-329 11 -333 8z"/>
</g>
</svg>
