<?xml version="1.0" encoding="utf-8"?>
<svg id="master-artboard" viewBox="0 0 300 300" version="1.1" xmlns="http://www.w3.org/2000/svg" x="0px" y="0px" style="enable-background:new 0 0 1400 980;" width="35px" height="35px"><rect id="ee-background" x="0" y="0" width="35" height="35" style="fill: white; fill-opacity: 0; pointer-events: none;"/><defs><style id="ee-google-fonts">@import url(https://fonts.googleapis.com/css?family=Arizonia:400);</style></defs>








































<g transform="matrix(2.976378440856933, 0, 0, 2.976378440856933, -1790.8360473660114, -136.68176574980038)"><g id="g-1" transform="matrix(1, 0, 0, 1, 0, 0)">
	<g id="g-2">
		<path class="st0" d="M652,46c27.6,0,50,22.4,50,50s-22.4,50-50,50s-50-22.4-50-50S624.4,46,652,46z" style="fill: rgb(51, 51, 51);"/>
	</g>
</g></g><path d="M 152.8628692626953 139.42845153808594 C 152.8628692626953 138.67510986328125 151.9828643798828 138.15512084960938 150.22286987304688 137.8684539794922 C 149.19619750976562 137.7084503173828 148.0228729248047 137.62844848632812 146.70286560058594 137.62844848632812 C 145.38287353515625 137.62844848632812 143.93287658691406 137.7084503173828 142.35287475585938 137.8684539794922 C 138.41287231445312 138.26844787597656 135.53286743164062 138.84512329101562 133.71287536621094 139.59844970703125 C 132.25286865234375 140.17178344726562 131.86953735351562 140.80511474609375 132.5628662109375 141.49844360351562 C 132.6428680419922 141.5784454345703 132.62620544433594 141.6184539794922 132.5128631591797 141.6184539794922 C 132.3995361328125 141.6184539794922 132.30287170410156 141.5784454345703 132.22286987304688 141.49844360351562 C 131.9495391845703 141.22511291503906 131.8128662109375 140.908447265625 131.8128662109375 140.54844665527344 C 131.8128662109375 140.18844604492188 131.88954162597656 139.84512329101562 132.04287719726562 139.51844787597656 C 132.19619750976562 139.18511962890625 132.47286987304688 138.84512329101562 132.87286376953125 138.49844360351562 C 133.2728729248047 138.14511108398438 133.75286865234375 137.85511779785156 134.3128662109375 137.62844848632812 C 136.0261993408203 136.95510864257812 138.01620483398438 136.47511291503906 140.28286743164062 136.18844604492188 C 141.6162109375 136.0284423828125 142.7862091064453 135.94845581054688 143.79287719726562 135.94845581054688 C 146.6862030029297 135.94845581054688 149.08619689941406 136.31845092773438 150.9928741455078 137.05845642089844 C 152.23953247070312 137.55178833007812 153.0228729248047 138.0784454345703 153.34286499023438 138.63844299316406 C 153.51620483398438 138.92510986328125 153.60287475585938 139.21177673339844 153.60287475585938 139.49844360351562 C 153.60287475585938 139.79177856445312 153.51620483398438 140.0884552001953 153.34286499023438 140.38844299316406 C 153.13619995117188 140.67510986328125 152.91287231445312 140.84512329101562 152.67286682128906 140.89845275878906 C 152.432861328125 140.9451141357422 152.3195343017578 140.90512084960938 152.33287048339844 140.7784423828125 C 152.3662109375 140.6317901611328 152.46287536621094 140.43177795410156 152.62286376953125 140.17845153808594 C 152.78286743164062 139.91845703125 152.8628692626953 139.66845703125 152.8628692626953 139.42845153808594 M 138.75286865234375 150.37844848632812 C 138.63954162597656 151.09844970703125 138.58287048339844 151.59178161621094 138.58287048339844 151.8584442138672 C 138.58287048339844 152.75845336914062 138.8628692626953 153.2784423828125 139.42286682128906 153.41845703125 C 139.50286865234375 153.4517822265625 139.58953857421875 153.46844482421875 139.68287658691406 153.46844482421875 L 140.33287048339844 153.2084503173828 C 140.45953369140625 153.09512329101562 140.5228729248047 153.0784454345703 140.5228729248047 153.158447265625 C 140.5228729248047 153.2384490966797 140.4761962890625 153.31178283691406 140.38287353515625 153.37844848632812 C 140.12953186035156 153.59844970703125 139.79287719726562 153.7084503173828 139.37286376953125 153.7084503173828 C 139.29287719726562 153.7084503173828 139.21287536621094 153.7084503173828 139.13287353515625 153.7084503173828 C 137.71287536621094 153.59512329101562 137.00286865234375 152.7784423828125 137.00286865234375 151.25845336914062 C 137.00286865234375 150.43177795410156 137.1862030029297 149.4884490966797 137.55287170410156 148.42845153808594 C 137.91954040527344 147.3751220703125 138.46287536621094 146.29844665527344 139.18287658691406 145.19845581054688 C 139.90286254882812 144.10511779785156 141.46954345703125 141.86178588867188 143.88287353515625 138.46844482421875 C 144.07620239257812 138.21511840820312 144.2261962890625 138.0884552001953 144.33287048339844 138.0884552001953 C 144.43287658691406 138.0884552001953 144.50953674316406 138.11178588867188 144.5628662109375 138.158447265625 C 144.6095428466797 138.20510864257812 144.63287353515625 138.2517852783203 144.63287353515625 138.29844665527344 C 144.63287353515625 138.35177612304688 144.62286376953125 138.39178466796875 144.60287475585938 138.41845703125 C 141.19619750976562 143.49179077148438 139.24620056152344 147.47845458984375 138.75286865234375 150.37844848632812 Z" transform="matrix(9.033499717712402, 0, 0, 9.033499717712402, -1135.6962890625, -1151.0362548828125)" style="fill: rgb(255, 255, 255); white-space: pre; color: rgb(255, 255, 255); stroke: rgb(255, 255, 255); -webkit-text-stroke: rgb(255, 255, 255);"/></svg>